<?xml version="1.0" encoding="UTF-8"?>
<svg version="1.1" xmlns="http://www.w3.org/2000/svg" width="500" height="500">
<path d="M0 0 C9.93351315 -0.28395101 19.79158039 0.2993801 29.70068359 0.94580078 C31.55052856 1.06338745 31.55052856 1.06338745 33.43774414 1.18334961 C39.4202155 1.60618065 45.1875757 2.22318602 51.04467773 3.50878906 C54.44992967 4.21277559 57.87512604 4.75512439 61.31005859 5.28955078 C62.30906944 5.44642868 62.30906944 5.44642868 63.32826233 5.60647583 C66.09000359 6.0393281 68.85215777 6.4693053 71.61523438 6.89355469 C73.66008525 7.20847797 75.70384643 7.52983175 77.74755859 7.85205078 C79.55305176 8.13145508 79.55305176 8.13145508 81.39501953 8.41650391 C84.65676865 9.0501287 87.62831699 9.98406845 90.76318359 11.07080078 C92.33711852 11.45644177 93.91804386 11.81495015 95.50537109 12.14111328 C96.34326172 12.31513672 97.18115234 12.48916016 98.04443359 12.66845703 C98.90037109 12.84248047 99.75630859 13.01650391 100.63818359 13.19580078 C101.51732422 13.37755859 102.39646484 13.55931641 103.30224609 13.74658203 C105.45524827 14.19122379 107.6088753 14.63253907 109.76318359 15.07080078 C109.76318359 15.73080078 109.76318359 16.39080078 109.76318359 17.07080078 C110.71193359 17.17392578 111.66068359 17.27705078 112.63818359 17.38330078 C118.50370711 18.22803135 124.33839371 19.77757951 129.57568359 22.57080078 C134.70755841 24.9858007 140.2316397 25.91360836 145.76318359 27.07080078 C145.76318359 27.73080078 145.76318359 28.39080078 145.76318359 29.07080078 C146.67068359 29.17392578 147.57818359 29.27705078 148.51318359 29.38330078 C156.63568441 30.55545029 164.27255381 32.74163199 171.76318359 36.07080078 C175.07641932 37.14258605 178.41329077 38.12042877 181.76318359 39.07080078 C181.76318359 39.73080078 181.76318359 40.39080078 181.76318359 41.07080078 C182.58109375 41.27382812 182.58109375 41.27382812 183.41552734 41.48095703 C193.51385915 44.36372868 199.73447946 50.47912966 205.93896484 58.73876953 C207.70163251 61.09237101 207.70163251 61.09237101 209.75927734 63.05126953 C211.97159599 65.28083822 213.7154937 67.62218491 215.51318359 70.19580078 C216.12677734 71.06462891 216.74037109 71.93345703 217.37255859 72.82861328 C218.76318359 75.07080078 218.76318359 75.07080078 218.76318359 77.07080078 C219.42318359 77.07080078 220.08318359 77.07080078 220.76318359 77.07080078 C229.57867334 93.77922903 229.57867334 93.77922903 230.76318359 102.07080078 C231.42318359 102.07080078 232.08318359 102.07080078 232.76318359 102.07080078 C233.41320037 105.06994797 234.05829397 108.07001879 234.70068359 111.07080078 C234.88308594 111.90998047 235.06548828 112.74916016 235.25341797 113.61376953 C236.106261 117.61437867 236.86582674 121.56743245 237.32958984 125.63330078 C237.3843572 128.89632677 237.3843572 128.89632677 238.76318359 130.07080078 C239.04135612 132.23419586 239.2566236 134.40571205 239.44677734 136.57861328 C239.50657272 137.24818558 239.5663681 137.91775787 239.62797546 138.60762024 C239.82303119 140.80333575 240.01178227 142.99954803 240.20068359 145.19580078 C240.33354611 146.69852514 240.46684857 148.20121067 240.60058594 149.70385742 C241.20924257 156.57066386 241.79672168 163.43911699 242.36865234 170.30908203 C242.45767822 171.36788574 242.5467041 172.42668945 242.63842773 173.51757812 C242.80185884 175.47459775 242.9613587 177.43195064 243.11645508 179.38964844 C243.18807861 180.25251465 243.25970215 181.11538086 243.33349609 182.00439453 C243.3929541 182.7474585 243.45241211 183.49052246 243.51367188 184.25610352 C243.67741525 186.16694105 243.67741525 186.16694105 244.76318359 188.07080078 C244.85926968 189.90208849 244.89300938 191.73700037 244.88818359 193.57080078 C244.89076172 194.55048828 244.89333984 195.53017578 244.89599609 196.53955078 C244.76318359 199.07080078 244.76318359 199.07080078 243.76318359 201.07080078 C243.51216355 202.48301299 243.30189791 203.90262103 243.11474609 205.32470703 C242.93685547 206.60764648 242.93685547 206.60764648 242.75537109 207.91650391 C242.51434829 209.69981622 242.2772394 211.48366279 242.04443359 213.26806641 C241.21788681 219.16380702 239.78341615 224.48153381 237.76318359 230.07080078 C237.3421011 231.36191869 236.92647093 232.65483134 236.51708984 233.94970703 C234.36219784 240.61220919 232.08431752 246.88662037 228.76318359 253.07080078 C228.07277785 254.72777457 227.39346946 256.39003847 226.76318359 258.07080078 C226.10318359 258.07080078 225.44318359 258.07080078 224.76318359 258.07080078 C224.51181641 258.94736328 224.26044922 259.82392578 224.00146484 260.72705078 C221.97017039 266.2121866 218.31021592 270.47203213 214.76318359 275.07080078 C214.30427734 275.67537109 213.84537109 276.27994141 213.37255859 276.90283203 C210.26540306 280.82820519 206.61136299 283.91375782 202.76318359 287.07080078 C202.23337891 287.52712891 201.70357422 287.98345703 201.15771484 288.45361328 C193.45087072 295.07080078 193.45087072 295.07080078 189.76318359 295.07080078 C189.76318359 295.73080078 189.76318359 296.39080078 189.76318359 297.07080078 C188.13991489 297.74167198 186.51450781 298.40737107 184.88818359 299.07080078 C183.98326172 299.44205078 183.07833984 299.81330078 182.14599609 300.19580078 C179.76318359 301.07080078 179.76318359 301.07080078 177.76318359 301.07080078 C177.76318359 301.73080078 177.76318359 302.39080078 177.76318359 303.07080078 C176.70099609 303.39693359 175.63880859 303.72306641 174.54443359 304.05908203 C173.11716907 304.49990205 171.69009797 304.94134867 170.26318359 305.38330078 C169.15922241 305.72506348 169.15922241 305.72506348 168.03295898 306.07373047 C164.37319945 307.2172786 160.76333364 308.39715732 157.20068359 309.82080078 C153.60904269 311.12685202 150.54342563 311.67702557 146.76318359 312.07080078 C146.76318359 313.06080078 146.76318359 314.05080078 146.76318359 315.07080078 C147.42318359 315.40080078 148.08318359 315.73080078 148.76318359 316.07080078 C149.68562297 318.44194302 150.50048083 320.77364169 151.26318359 323.19580078 C151.58222656 324.17419922 151.58222656 324.17419922 151.90771484 325.17236328 C152.54208972 327.13386596 153.15456169 329.10117396 153.76318359 331.07080078 C154.12283203 332.20646484 154.48248047 333.34212891 154.85302734 334.51220703 C155.90821928 338.63787163 156.42004644 342.6521461 156.82568359 346.88330078 C156.90802246 347.71369873 156.99036133 348.54409668 157.07519531 349.3996582 C157.89297772 357.94750858 158.4804811 366.48851149 158.76318359 375.07080078 C158.79186523 375.91481445 158.82054687 376.75882812 158.85009766 377.62841797 C159.16035184 388.29880552 158.80406879 398.7253099 157.45068359 409.32080078 C157.27424316 410.71238403 157.27424316 410.71238403 157.09423828 412.13208008 C156.21892965 418.33143664 154.66807091 424.11614787 152.76318359 430.07080078 C152.21192622 432.04731761 151.66798177 434.02592409 151.13818359 436.00830078 C150.40939209 438.73147334 149.65499661 441.39536172 148.76318359 444.07080078 C148.10318359 444.07080078 147.44318359 444.07080078 146.76318359 444.07080078 C146.45380859 445.98892578 146.45380859 445.98892578 146.13818359 447.94580078 C145.70613916 449.66097128 145.24580979 451.36917092 144.76318359 453.07080078 C144.55350637 453.94466619 144.34382915 454.81853161 144.12779808 455.71887779 C142.79877386 459.1483428 141.67995261 460.77766737 138.76318359 463.07080078 C131.39002513 465.10752661 123.25031897 464.32939081 115.68359375 464.20605469 C113.27879962 464.20323384 110.87399688 464.20481749 108.46920776 464.21047974 C103.29264589 464.21275659 98.1172152 464.18440721 92.94099808 464.12810135 C85.45724454 464.04674766 77.97410004 464.0207791 70.48995225 464.00822143 C58.34712224 463.98634755 46.20496488 463.9198336 34.0625 463.82519531 C22.26891439 463.7333719 10.47551164 463.66260451 -1.31835938 463.62011719 C-2.04560996 463.61748995 -2.77286054 463.61486272 -3.52214901 463.61215587 C-7.17063744 463.59910527 -10.81912716 463.58646825 -14.46761775 463.57403684 C-44.72449884 463.47040845 -74.98056418 463.29356794 -105.23681641 463.07080078 C-103.12697266 455.51244141 -103.12697266 455.51244141 -101.36181641 452.38330078 C-96.52914907 443.0718646 -94.49717688 433.18937938 -93.04931641 422.88330078 C-92.7259249 420.66014268 -92.39928951 418.43745314 -92.06884766 416.21533203 C-91.93196533 415.24958252 -91.79508301 414.28383301 -91.65405273 413.28881836 C-91.23681641 411.07080078 -91.23681641 411.07080078 -90.23681641 410.07080078 C-89.49040666 405.74206463 -88.95796193 401.38170182 -88.39746094 397.02539062 C-88.11464254 394.84261272 -87.81872025 392.66187901 -87.52197266 390.48095703 C-87.34017365 389.08913543 -87.15915913 387.6972111 -86.97900391 386.30517578 C-86.72932861 384.40590332 -86.72932861 384.40590332 -86.47460938 382.46826172 C-86.25406265 379.317206 -86.24930076 377.0577879 -87.23681641 374.07080078 C-89.19867057 372.35939609 -91.19984024 370.69206753 -93.23681641 369.07080078 C-94.48681641 366.82080078 -94.48681641 366.82080078 -95.23681641 365.07080078 C-95.89681641 364.74080078 -96.55681641 364.41080078 -97.23681641 364.07080078 C-100.20196143 356.02914978 -100.65183098 348.00116945 -100.52978516 339.52392578 C-100.52554031 338.38671082 -100.52129547 337.24949585 -100.516922 336.07781982 C-100.50030362 332.49189251 -100.46268349 328.90655448 -100.42431641 325.32080078 C-100.4092478 322.87028814 -100.39556323 320.41976657 -100.38330078 317.96923828 C-100.35045555 312.00289581 -100.30042764 306.03689041 -100.23681641 300.07080078 C-101.50912109 299.91683838 -102.78142578 299.76287598 -104.09228516 299.60424805 C-107.98990333 299.13259478 -111.49215724 298.24100677 -115.23681641 297.07080078 C-115.23681641 296.41080078 -115.23681641 295.75080078 -115.23681641 295.07080078 C-115.87619141 294.96767578 -116.51556641 294.86455078 -117.17431641 294.75830078 C-121.30158966 293.83177005 -125.24324589 292.45419449 -129.23681641 291.07080078 C-129.23681641 290.41080078 -129.23681641 289.75080078 -129.23681641 289.07080078 C-130.15914062 288.76335937 -130.15914062 288.76335937 -131.10009766 288.44970703 C-134.47900391 287.32340495 -137.85791016 286.19710286 -141.23681641 285.07080078 C-141.23681641 284.41080078 -141.23681641 283.75080078 -141.23681641 283.07080078 C-142.14431641 282.78205078 -143.05181641 282.49330078 -143.98681641 282.19580078 C-146.55884548 281.30548302 -148.85028407 280.35585666 -151.23681641 279.07080078 C-151.23681641 278.41080078 -151.23681641 277.75080078 -151.23681641 277.07080078 C-152.62900391 276.63767578 -152.62900391 276.63767578 -154.04931641 276.19580078 C-157.23681641 275.07080078 -157.23681641 275.07080078 -160.23681641 273.07080078 C-160.23681641 272.41080078 -160.23681641 271.75080078 -160.23681641 271.07080078 C-160.97931641 270.78205078 -161.72181641 270.49330078 -162.48681641 270.19580078 C-163.39431641 269.82455078 -164.30181641 269.45330078 -165.23681641 269.07080078 C-166.22681641 268.66861328 -166.22681641 268.66861328 -167.23681641 268.25830078 C-170.02381038 266.60352311 -171.97023535 264.38889504 -174.23681641 262.07080078 C-175.58207828 260.87322235 -176.9368358 259.68625248 -178.29931641 258.50830078 C-181.05790096 256.11958231 -183.65655032 253.65106687 -186.23681641 251.07080078 C-188.29304029 249.3201202 -190.35429057 247.57704865 -192.43212891 245.85205078 C-194.29371132 244.01464477 -195.14435702 242.42007186 -196.23681641 240.07080078 C-197.22681641 239.14267578 -197.22681641 239.14267578 -198.23681641 238.19580078 C-200.62671726 235.65653113 -201.32839376 233.40168382 -202.23681641 230.07080078 C-202.89681641 230.07080078 -203.55681641 230.07080078 -204.23681641 230.07080078 C-204.90986658 228.46930192 -205.57503867 226.86449049 -206.23681641 225.25830078 C-206.60806641 224.36498047 -206.97931641 223.47166016 -207.36181641 222.55126953 C-208.23681641 220.07080078 -208.23681641 220.07080078 -208.23681641 217.07080078 C-208.89681641 217.07080078 -209.55681641 217.07080078 -210.23681641 217.07080078 C-210.91002925 214.82275076 -211.57515764 212.57227854 -212.23681641 210.32080078 C-212.60806641 209.06783203 -212.97931641 207.81486328 -213.36181641 206.52392578 C-214.23681641 203.07080078 -214.23681641 203.07080078 -214.23681641 199.07080078 C-214.89681641 199.07080078 -215.55681641 199.07080078 -216.23681641 199.07080078 C-216.38304443 198.31871338 -216.52927246 197.56662598 -216.67993164 196.79174805 C-217.34075296 193.40480942 -218.0074533 190.01905477 -218.67431641 186.63330078 C-218.90441406 185.44929687 -219.13451172 184.26529297 -219.37158203 183.04541016 C-219.59394531 181.92070312 -219.81630859 180.79599609 -220.04541016 179.63720703 C-220.249646 178.59508057 -220.45388184 177.5529541 -220.66430664 176.47924805 C-220.99957882 174.13323549 -220.99957882 174.13323549 -222.23681641 173.07080078 C-222.55394772 168.05925116 -222.53125712 163.02912734 -222.54931641 158.00830078 C-222.55259949 157.27594208 -222.55588257 156.54358337 -222.55926514 155.78903198 C-222.57506789 144.96101193 -221.71457964 135.38462533 -218.23681641 125.07080078 C-217.79511856 123.24333663 -217.37441687 121.41049861 -216.98681641 119.57080078 C-216.73931641 118.41580078 -216.49181641 117.26080078 -216.23681641 116.07080078 C-215.57681641 116.07080078 -214.91681641 116.07080078 -214.23681641 116.07080078 C-214.11564453 115.49072266 -213.99447266 114.91064453 -213.86962891 114.31298828 C-212.89946166 109.79051636 -211.80283858 105.43329112 -210.23681641 101.07080078 C-209.57681641 101.07080078 -208.91681641 101.07080078 -208.23681641 101.07080078 C-208.15431641 100.41466797 -208.07181641 99.75853516 -207.98681641 99.08251953 C-206.97682567 95.02677548 -205.15128872 91.58171321 -203.23681641 87.88330078 C-202.86814453 87.15949219 -202.49947266 86.43568359 -202.11962891 85.68994141 C-201.16354523 83.81441229 -200.20064031 81.94236402 -199.23681641 80.07080078 C-198.90681641 79.41080078 -198.57681641 78.75080078 -198.23681641 78.07080078 C-197.57681641 78.07080078 -196.91681641 78.07080078 -196.23681641 78.07080078 C-196.13240234 77.49330078 -196.02798828 76.91580078 -195.92041016 76.32080078 C-195.1309213 73.72225461 -193.98934019 72.18642958 -192.29931641 70.07080078 C-190.69725235 68.05542782 -189.33428372 66.27711292 -188.23291016 63.94580078 C-187.23681641 62.07080078 -187.23681641 62.07080078 -184.23681641 60.07080078 C-183.64900391 58.98798828 -183.64900391 58.98798828 -183.04931641 57.88330078 C-180.43949309 53.83357495 -176.92137432 51.12714863 -173.23681641 48.07080078 C-171.78275391 46.80236328 -171.78275391 46.80236328 -170.29931641 45.50830078 C-164.29202683 40.72698867 -158.82957333 36.68628098 -151.23681641 35.07080078 C-151.23681641 34.41080078 -151.23681641 33.75080078 -151.23681641 33.07080078 C-150.24681641 32.74466797 -149.25681641 32.41853516 -148.23681641 32.08251953 C-146.90345572 31.64119592 -145.57012394 31.19978496 -144.23681641 30.75830078 C-143.58841797 30.54496094 -142.94001953 30.33162109 -142.27197266 30.11181641 C-138.2320112 28.77182919 -134.23913445 27.34050063 -130.25927734 25.83178711 C-121.41714346 22.50477947 -112.49648445 19.32926582 -103.41650391 16.71533203 C-101.20657322 16.0618579 -99.03882165 15.32616737 -96.86181641 14.57080078 C-92.34953282 13.03999054 -87.76565668 11.91498382 -83.13134766 10.81689453 C-80.25756262 10.12880763 -80.25756262 10.12880763 -77.64306641 9.10986328 C-72.49698758 7.54007318 -67.23356479 6.83404432 -61.92431641 6.00830078 C-59.74014795 5.66690548 -57.55651694 5.32204731 -55.37353516 4.97314453 C-53.93046997 4.74872681 -53.93046997 4.74872681 -52.45825195 4.51977539 C-50.27287777 4.29119932 -50.27287777 4.29119932 -49.23681641 3.07080078 C-47.81518107 2.85396987 -46.38399702 2.699151 -44.95166016 2.57080078 C-43.58485107 2.44777588 -43.58485107 2.44777588 -42.19042969 2.32226562 C-41.1951123 2.23928223 -40.19979492 2.15629883 -39.17431641 2.07080078 C-38.14806152 1.9839502 -37.12180664 1.89709961 -36.06445312 1.80761719 C-24.05285405 0.83508456 -12.04170865 0.38114991 0 0 Z " fill="#FE0101" transform="translate(238.23681640625,36.92919921875)"/>
<path d="M0 0 C28.1784476 -0.58061215 55.25244818 -0.15478795 83 5 C85.09499652 5.37270831 87.1900441 5.74512974 89.28515625 6.1171875 C93.47796404 6.87872498 97.65433605 7.70204466 101.82763672 8.56347656 C103.9860859 8.99720405 106.14830548 9.39115273 108.31640625 9.7734375 C114.37361077 10.86027553 119.86216091 11.99078166 125.265625 15.02734375 C130.38708317 17.89951286 135.78517127 19.19512187 141.5 20.375 C145.61507842 21.2632144 148.65564636 22.1498746 152.0625 24.625 C156.23108693 27.58619494 160.13446169 27.53893402 165.1328125 27.76953125 C168.39455498 28.03171491 170.79930451 28.84769331 173.7734375 30.1328125 C176.62723123 31.24429006 179.53269555 31.93060293 182.5 32.6875 C197.11274384 36.86480472 208.14479052 43.40750529 218 55 C218.45101074 55.52255371 218.90202148 56.04510742 219.36669922 56.58349609 C243.16230332 84.55044116 244.92939866 121.35181593 246.76635742 156.45751953 C246.91366488 159.12113958 246.91366488 159.12113958 248 162 C249.1333424 180.85807438 246.20450349 198.52852823 239 216 C238.60941406 216.95003906 238.21882813 217.90007812 237.81640625 218.87890625 C232.38799788 231.39094258 225.56663103 241.4054372 216 251 C215.35417969 251.66902344 214.70835937 252.33804688 214.04296875 253.02734375 C202.56374486 264.05640199 185.18026674 270.00765453 170.18359375 274.09765625 C167.65364472 274.81473383 165.25397252 275.59889224 162.8125 276.5625 C155.47004023 279.4554606 147.65182642 281.12313692 140 283 C141.34881831 280.1032521 142.90244861 277.69662625 144.875 275.1875 C152.67604101 264.89393125 154.34920552 255.99415743 154.3125 243.25 C154.32861328 242.1465625 154.34472656 241.043125 154.36132812 239.90625 C154.37156782 222.45781203 148.29173672 209.88301548 136.33984375 197.27734375 C121.51299817 182.84654079 107.10381211 178.55694947 86.88085938 178.48706055 C75.13040552 178.66233764 63.47163821 180.5611898 54 188 C53.34 188 52.68 188 52 188 C51.773125 188.556875 51.54625 189.11375 51.3125 189.6875 C49.62971908 192.65239972 47.43891488 194.616515 45 197 C43.42010539 198.86326637 41.86746202 200.74448632 40.33203125 202.64453125 C39.89246094 203.09183594 39.45289063 203.53914062 39 204 C38.34 204 37.68 204 37 204 C36.62488281 203.34128906 36.24976563 202.68257812 35.86328125 202.00390625 C33.21216262 197.72988062 29.75055871 194.46179469 26.1875 190.9375 C25.48818359 190.23044922 24.78886719 189.52339844 24.06835938 188.79492188 C21.03012902 185.76806002 18.11883259 182.93305352 14.48828125 180.62890625 C13.25658203 179.82259766 13.25658203 179.82259766 12 179 C12 178.34 12 177.68 12 177 C11.175 176.7525 10.35 176.505 9.5 176.25 C6.19911034 175.07111083 3.24098996 173.66576481 0.1328125 172.0703125 C-3.5150002 170.23972517 -7.26204427 168.63614224 -11 167 C-12.68792286 166.25095216 -14.37543646 165.50098126 -16.0625 164.75 C-16.81660156 164.41484375 -17.57070312 164.0796875 -18.34765625 163.734375 C-18.89292969 163.49203125 -19.43820313 163.2496875 -20 163 C-20 162.34 -20 161.68 -20 161 C-41.02502727 159.45927044 -41.02502727 159.45927044 -60 167 C-60.90363281 167.61488281 -61.80726563 168.22976562 -62.73828125 168.86328125 C-74.70288793 177.70822752 -86.20542266 194.0293587 -89.671875 208.6875 C-91.24984522 219.80843299 -89.30114255 230.25039474 -83.8359375 240.05078125 C-82.56738037 243.00877193 -82.51321212 245.9270305 -82.46875 249.1171875 C-82.3140625 249.73851562 -82.159375 250.35984375 -82 251 C-80.68944271 251.71039554 -79.34923424 252.36613157 -78 253 C-76.0209125 254.84088307 -74.12546225 256.6855456 -72.25 258.625 C-71.74339844 259.140625 -71.23679687 259.65625 -70.71484375 260.1875 C-69.47196098 261.45383339 -68.23534724 262.7263144 -67 264 C-70.62719379 265.2090646 -71.46273464 264.68505783 -74.9375 263.3125 C-80.90216574 261.02391836 -86.93053413 258.99137798 -93 257 C-93 256.34 -93 255.68 -93 255 C-94.00160156 254.86464844 -94.00160156 254.86464844 -95.0234375 254.7265625 C-98.83307912 253.79664998 -102.15261257 252.14666833 -105.625 250.375 C-106.68678467 249.83758179 -106.68678467 249.83758179 -107.77001953 249.28930664 C-113.75921661 246.21180794 -119.42370984 242.77579522 -125 239 C-126.17175781 238.2575 -126.17175781 238.2575 -127.3671875 237.5 C-135.08115089 232.44166335 -141.58842557 226.10730615 -148.19873047 219.72070312 C-149.8282319 218.16408533 -151.48466547 216.64733433 -153.16015625 215.140625 C-162.63014211 206.33497102 -168.52776171 196.03982485 -170 183 C-170.66 183 -171.32 183 -172 183 C-172.20363159 182.14003418 -172.20363159 182.14003418 -172.41137695 181.26269531 C-173.04432518 178.59161628 -173.67841015 175.92080824 -174.3125 173.25 C-174.52583984 172.34894531 -174.73917969 171.44789063 -174.95898438 170.51953125 C-175.28286133 169.15634766 -175.28286133 169.15634766 -175.61328125 167.765625 C-175.83483887 166.82291748 -176.05639648 165.88020996 -176.28466797 164.90893555 C-176.76544231 162.95384124 -177.28079519 161.00695796 -177.82861328 159.06958008 C-179.88490083 151.65073349 -180.39938808 144.86698096 -180.25 137.1875 C-180.24484375 136.10791016 -180.2396875 135.02832031 -180.234375 133.91601562 C-180.15824583 126.15559869 -179.74274551 119.59648268 -176.828125 112.32421875 C-175.45743735 108.47724161 -174.58347787 104.51047051 -173.6484375 100.5390625 C-173 98 -173 98 -172 96 C-171.34 96 -170.68 96 -170 96 C-169.76539063 94.70835937 -169.53078125 93.41671875 -169.2890625 92.0859375 C-168.10720495 86.79345106 -165.95748699 82.36505689 -163.375 77.625 C-162.9305957 76.79645508 -162.48619141 75.96791016 -162.02832031 75.11425781 C-158.49914103 68.65462186 -154.63671009 62.73065252 -150 57 C-149.19949219 55.97326172 -149.19949219 55.97326172 -148.3828125 54.92578125 C-145.30369684 51.12076009 -142.17217128 48.63028189 -138 46 C-136.64631404 44.68733482 -135.31200404 43.35432675 -134 42 C-129.33333333 38 -129.33333333 38 -127 38 C-126.505 37.01 -126.505 37.01 -126 36 C-119.30793416 31.38713289 -112.42609695 28.19431943 -104.67578125 25.83203125 C-101.80065084 24.98951506 -101.80065084 24.98951506 -98.375 23.4375 C-94.79480041 21.91260018 -91.21690333 20.83407733 -87.484375 19.75390625 C-85.2163241 19.06564552 -83.0230443 18.29001612 -80.8125 17.4375 C-75.58607097 15.43544049 -70.66961142 13.65638719 -65 14 C-65 13.34 -65 12.68 -65 12 C-60.29223834 10.88806417 -55.58232495 9.7858875 -50.87036133 8.69189453 C-49.27471556 8.32008425 -47.67963937 7.94581925 -46.08520508 7.56884766 C-33.05948462 4.49190582 -20.02666023 1.61853981 -6.5625 1.875 C-4.67724609 1.90207031 -4.67724609 1.90207031 -2.75390625 1.9296875 C-1.39072266 1.96449219 -1.39072266 1.96449219 0 2 C0 1.34 0 0.68 0 0 Z " fill="#FEFDFD" transform="translate(215,56)"/>
<path d="M0 0 C9.93351315 -0.28395101 19.79158039 0.2993801 29.70068359 0.94580078 C31.55052856 1.06338745 31.55052856 1.06338745 33.43774414 1.18334961 C39.4202155 1.60618065 45.1875757 2.22318602 51.04467773 3.50878906 C54.44992967 4.21277559 57.87512604 4.75512439 61.31005859 5.28955078 C62.30906944 5.44642868 62.30906944 5.44642868 63.32826233 5.60647583 C66.09000359 6.0393281 68.85215777 6.4693053 71.61523438 6.89355469 C73.66008525 7.20847797 75.70384643 7.52983175 77.74755859 7.85205078 C79.55305176 8.13145508 79.55305176 8.13145508 81.39501953 8.41650391 C84.65676865 9.0501287 87.62831699 9.98406845 90.76318359 11.07080078 C92.33711852 11.45644177 93.91804386 11.81495015 95.50537109 12.14111328 C96.34326172 12.31513672 97.18115234 12.48916016 98.04443359 12.66845703 C98.90037109 12.84248047 99.75630859 13.01650391 100.63818359 13.19580078 C101.51732422 13.37755859 102.39646484 13.55931641 103.30224609 13.74658203 C105.45524827 14.19122379 107.6088753 14.63253907 109.76318359 15.07080078 C109.76318359 15.73080078 109.76318359 16.39080078 109.76318359 17.07080078 C110.71193359 17.17392578 111.66068359 17.27705078 112.63818359 17.38330078 C118.50370711 18.22803135 124.33839371 19.77757951 129.57568359 22.57080078 C134.70755841 24.9858007 140.2316397 25.91360836 145.76318359 27.07080078 C145.76318359 27.73080078 145.76318359 28.39080078 145.76318359 29.07080078 C146.67068359 29.17392578 147.57818359 29.27705078 148.51318359 29.38330078 C156.63568441 30.55545029 164.27255381 32.74163199 171.76318359 36.07080078 C175.07641932 37.14258605 178.41329077 38.12042877 181.76318359 39.07080078 C181.76318359 39.73080078 181.76318359 40.39080078 181.76318359 41.07080078 C182.58109375 41.27382812 182.58109375 41.27382812 183.41552734 41.48095703 C193.51385915 44.36372868 199.73447946 50.47912966 205.93896484 58.73876953 C207.70163251 61.09237101 207.70163251 61.09237101 209.75927734 63.05126953 C211.97159599 65.28083822 213.7154937 67.62218491 215.51318359 70.19580078 C216.12677734 71.06462891 216.74037109 71.93345703 217.37255859 72.82861328 C218.76318359 75.07080078 218.76318359 75.07080078 218.76318359 77.07080078 C219.42318359 77.07080078 220.08318359 77.07080078 220.76318359 77.07080078 C229.57867334 93.77922903 229.57867334 93.77922903 230.76318359 102.07080078 C231.42318359 102.07080078 232.08318359 102.07080078 232.76318359 102.07080078 C233.41320037 105.06994797 234.05829397 108.07001879 234.70068359 111.07080078 C234.88308594 111.90998047 235.06548828 112.74916016 235.25341797 113.61376953 C236.106261 117.61437867 236.86582674 121.56743245 237.32958984 125.63330078 C237.3843572 128.89632677 237.3843572 128.89632677 238.76318359 130.07080078 C239.04135612 132.23419586 239.2566236 134.40571205 239.44677734 136.57861328 C239.50657272 137.24818558 239.5663681 137.91775787 239.62797546 138.60762024 C239.82303119 140.80333575 240.01178227 142.99954803 240.20068359 145.19580078 C240.33354611 146.69852514 240.46684857 148.20121067 240.60058594 149.70385742 C241.20924257 156.57066386 241.79672168 163.43911699 242.36865234 170.30908203 C242.45767822 171.36788574 242.5467041 172.42668945 242.63842773 173.51757812 C242.80185884 175.47459775 242.9613587 177.43195064 243.11645508 179.38964844 C243.18807861 180.25251465 243.25970215 181.11538086 243.33349609 182.00439453 C243.3929541 182.7474585 243.45241211 183.49052246 243.51367188 184.25610352 C243.67741525 186.16694105 243.67741525 186.16694105 244.76318359 188.07080078 C244.85926968 189.90208849 244.89300938 191.73700037 244.88818359 193.57080078 C244.89076172 194.55048828 244.89333984 195.53017578 244.89599609 196.53955078 C244.76318359 199.07080078 244.76318359 199.07080078 243.76318359 201.07080078 C243.51216355 202.48301299 243.30189791 203.90262103 243.11474609 205.32470703 C242.93685547 206.60764648 242.93685547 206.60764648 242.75537109 207.91650391 C242.51434829 209.69981622 242.2772394 211.48366279 242.04443359 213.26806641 C241.21788681 219.16380702 239.78341615 224.48153381 237.76318359 230.07080078 C237.3421011 231.36191869 236.92647093 232.65483134 236.51708984 233.94970703 C234.36219784 240.61220919 232.08431752 246.88662037 228.76318359 253.07080078 C228.07277785 254.72777457 227.39346946 256.39003847 226.76318359 258.07080078 C226.10318359 258.07080078 225.44318359 258.07080078 224.76318359 258.07080078 C224.51181641 258.94736328 224.26044922 259.82392578 224.00146484 260.72705078 C221.97017039 266.2121866 218.31021592 270.47203213 214.76318359 275.07080078 C214.30427734 275.67537109 213.84537109 276.27994141 213.37255859 276.90283203 C210.26540306 280.82820519 206.61136299 283.91375782 202.76318359 287.07080078 C202.23337891 287.52712891 201.70357422 287.98345703 201.15771484 288.45361328 C193.45087072 295.07080078 193.45087072 295.07080078 189.76318359 295.07080078 C189.76318359 295.73080078 189.76318359 296.39080078 189.76318359 297.07080078 C188.13991489 297.74167198 186.51450781 298.40737107 184.88818359 299.07080078 C183.98326172 299.44205078 183.07833984 299.81330078 182.14599609 300.19580078 C179.76318359 301.07080078 179.76318359 301.07080078 177.76318359 301.07080078 C177.76318359 301.73080078 177.76318359 302.39080078 177.76318359 303.07080078 C176.70099609 303.39693359 175.63880859 303.72306641 174.54443359 304.05908203 C173.11716907 304.49990205 171.69009797 304.94134867 170.26318359 305.38330078 C169.15922241 305.72506348 169.15922241 305.72506348 168.03295898 306.07373047 C164.37319945 307.2172786 160.76333364 308.39715732 157.20068359 309.82080078 C153.60904269 311.12685202 150.54342563 311.67702557 146.76318359 312.07080078 C146.76318359 313.06080078 146.76318359 314.05080078 146.76318359 315.07080078 C147.42318359 315.40080078 148.08318359 315.73080078 148.76318359 316.07080078 C149.68562297 318.44194302 150.50048083 320.77364169 151.26318359 323.19580078 C151.58222656 324.17419922 151.58222656 324.17419922 151.90771484 325.17236328 C152.54208972 327.13386596 153.15456169 329.10117396 153.76318359 331.07080078 C154.12283203 332.20646484 154.48248047 333.34212891 154.85302734 334.51220703 C155.90821928 338.63787163 156.42004644 342.6521461 156.82568359 346.88330078 C156.90802246 347.71369873 156.99036133 348.54409668 157.07519531 349.3996582 C157.89297772 357.94750858 158.4804811 366.48851149 158.76318359 375.07080078 C158.79186523 375.91481445 158.82054687 376.75882812 158.85009766 377.62841797 C159.16035184 388.29880552 158.80406879 398.7253099 157.45068359 409.32080078 C157.27424316 410.71238403 157.27424316 410.71238403 157.09423828 412.13208008 C156.21892965 418.33143664 154.66807091 424.11614787 152.76318359 430.07080078 C152.21192622 432.04731761 151.66798177 434.02592409 151.13818359 436.00830078 C150.40939209 438.73147334 149.65499661 441.39536172 148.76318359 444.07080078 C148.10318359 444.07080078 147.44318359 444.07080078 146.76318359 444.07080078 C146.45380859 445.98892578 146.45380859 445.98892578 146.13818359 447.94580078 C145.70984099 449.66189951 145.24876735 451.37001254 144.76318359 453.07080078 C144.52212891 454.00279297 144.28107422 454.93478516 144.03271484 455.89501953 C142.67037814 459.34266584 141.80670372 460.88536563 138.76318359 463.07080078 C131.87664918 464.3502426 124.69923938 463.6714451 117.76318359 463.07080078 C119.25551407 457.94392349 121.55325018 453.63460684 124.13818359 449.00830078 C128.01706326 441.88161067 130.69642771 434.93507187 132.76318359 427.07080078 C133.28045317 425.46548142 133.80112898 423.86125447 134.32568359 422.25830078 C137.98587787 409.75887091 139.27697295 397.64014673 139.13818359 384.69580078 C139.1355249 383.97265686 139.13286621 383.24951294 139.13012695 382.50445557 C139.07046572 368.55558278 137.82105344 354.87385329 135.76318359 341.07080078 C135.10318359 341.07080078 134.44318359 341.07080078 133.76318359 341.07080078 C132.34501868 342.88784149 132.34501868 342.88784149 130.95068359 345.19580078 C120.70534788 360.89390467 104.17296418 370.7321492 86.76318359 377.07080078 C85.03169353 377.75242809 83.30252033 378.43996934 81.57568359 379.13330078 C80.74681641 379.46201172 79.91794922 379.79072266 79.06396484 380.12939453 C77.10705787 380.9300984 75.1809471 381.80541058 73.26318359 382.69580078 C64.52879831 386.12716643 53.47078036 388.1628808 44.33349609 385.31298828 C42.34756696 384.36124111 40.57696531 383.31614852 38.76318359 382.07080078 C37.89693359 381.51392578 37.03068359 380.95705078 36.13818359 380.38330078 C31.40444849 375.77413766 27.74297385 370.68438504 26.76318359 364.07080078 C28.85997464 362.70384856 30.96427739 361.35233087 33.07568359 360.00830078 C33.96803711 359.42338867 33.96803711 359.42338867 34.87841797 358.82666016 C36.45927995 357.82868583 38.10913071 356.94211382 39.76318359 356.07080078 C40.75318359 356.40080078 41.74318359 356.73080078 42.76318359 357.07080078 C42.76318359 358.06080078 42.76318359 359.05080078 42.76318359 360.07080078 C43.42318359 360.07080078 44.08318359 360.07080078 44.76318359 360.07080078 C46.14442323 362.03802086 47.47806485 364.03948406 48.76318359 366.07080078 C50.28703137 367.59464856 51.64223731 367.23988979 53.76318359 367.25830078 C62.25034453 367.13743931 69.18630784 364.69791017 76.76318359 361.07080078 C77.99296799 360.49901408 79.22349686 359.92882704 80.45458984 359.35986328 C101.16737571 349.76948325 113.51664831 340.51064259 123.76318359 320.07080078 C121.1168778 320.52653657 118.47104991 320.98466171 115.82568359 321.44580078 C115.04241699 321.58228027 114.25915039 321.71875977 113.45214844 321.859375 C109.57000445 322.54445923 105.7210096 323.26748329 101.88818359 324.19580078 C96.90980813 325.36948458 91.8549578 325.70914205 86.76318359 326.07080078 C89.52332821 323.170741 92.35108102 320.84879284 95.63818359 318.57080078 C98.9585462 316.2236479 102.09414379 313.82661467 105.06787109 311.05908203 C113.23172568 303.48862251 119.89891906 299.75985631 130.76318359 297.07080078 C132.68045928 296.55221386 134.5971857 296.03158897 136.51318359 295.50830078 C137.38201172 295.28013672 138.25083984 295.05197266 139.14599609 294.81689453 C142.89416905 293.74838552 146.51843046 292.39741694 150.16552734 291.02783203 C152.41368223 290.19956444 154.66279165 289.46594098 156.95068359 288.75830078 C179.84043257 281.15578092 196.58282946 269.0281748 208.76318359 248.07080078 C209.17052734 247.37599609 209.57787109 246.68119141 209.99755859 245.96533203 C216.70109086 233.51983974 220.05132066 219.82481332 222.76318359 206.07080078 C222.96041016 205.28318359 223.15763672 204.49556641 223.36083984 203.68408203 C224.01244704 199.4517984 223.906583 195.22059721 223.88818359 190.94580078 C223.89205078 190.03958984 223.89591797 189.13337891 223.89990234 188.19970703 C223.89861328 187.32958984 223.89732422 186.45947266 223.89599609 185.56298828 C223.89486816 184.77263184 223.89374023 183.98227539 223.89257812 183.16796875 C223.84146739 180.87697677 223.84146739 180.87697677 222.76318359 178.07080078 C222.59141864 176.20166784 222.46673545 174.32805743 222.36865234 172.45361328 C220.03526881 131.79461892 215.67524468 97.60361031 186.76318359 67.07080078 C186.24626953 66.50361328 185.72935547 65.93642578 185.19677734 65.35205078 C176.28927033 56.60734415 161.82333157 53.22742838 150.11474609 50.01611328 C146.76318359 49.07080078 146.76318359 49.07080078 144.76318359 48.07080078 C141.87538571 47.91086121 138.99036064 47.81700071 136.09912109 47.74267578 C132.8961748 47.09758589 131.62097379 46.46229596 129.00537109 44.68798828 C124.4298752 41.62963625 119.84733704 40.56961353 114.51318359 39.44580078 C112.75602587 39.06670553 111.00070381 38.67897662 109.24755859 38.28173828 C108.4815332 38.1197998 107.71550781 37.95786133 106.92626953 37.79101562 C104.42410629 36.95790258 102.83826584 35.67869899 100.76318359 34.07080078 C93.55400851 30.74131136 85.46312751 29.82729523 77.70068359 28.57080078 C75.09375044 28.13687903 72.48697777 27.70199194 69.88037109 27.26611328 C68.64125977 27.06018555 67.40214844 26.85425781 66.12548828 26.64208984 C62.17789564 25.97135453 58.25385275 25.22163461 54.32568359 24.44580078 C35.99674588 21.00756123 18.0277626 19.58050747 -0.61181641 19.38330078 C-2.82407457 19.3500081 -5.0363149 19.31550822 -7.24853516 19.27978516 C-12.57783837 19.19628307 -17.90716281 19.12738967 -23.23681641 19.07080078 C-23.23681641 19.73080078 -23.23681641 20.39080078 -23.23681641 21.07080078 C-23.82881836 21.11043945 -24.42082031 21.15007813 -25.03076172 21.19091797 C-43.07174687 22.44926799 -60.25617192 25.41869995 -77.77148438 29.8515625 C-81.33703056 30.73296339 -84.56119647 31.26910012 -88.23681641 31.07080078 C-88.23681641 31.73080078 -88.23681641 32.39080078 -88.23681641 33.07080078 C-88.7757251 33.20655518 -89.31463379 33.34230957 -89.86987305 33.48217773 C-92.34789157 34.10998494 -94.8235746 34.74657721 -97.29931641 35.38330078 C-98.146875 35.59664062 -98.99443359 35.80998047 -99.86767578 36.02978516 C-104.90737072 37.33349003 -109.48842403 38.94744104 -114.23681641 41.07080078 C-115.83093553 41.5824018 -117.43474358 42.06546224 -119.04931641 42.50830078 C-127.11184169 44.86241179 -134.58321729 48.11296281 -142.01025391 52.02001953 C-144.23681641 53.07080078 -144.23681641 53.07080078 -146.46337891 53.59033203 C-147.04861328 53.74888672 -147.63384766 53.90744141 -148.23681641 54.07080078 C-148.73181641 55.06080078 -148.73181641 55.06080078 -149.23681641 56.07080078 C-150.62553854 57.04921865 -152.04786293 57.9803813 -153.48681641 58.88330078 C-156.32733336 60.72128234 -158.84406063 62.48958523 -161.17431641 64.94580078 C-161.85494141 65.64705078 -162.53556641 66.34830078 -163.23681641 67.07080078 C-163.89681641 67.07080078 -164.55681641 67.07080078 -165.23681641 67.07080078 C-165.23681641 67.73080078 -165.23681641 68.39080078 -165.23681641 69.07080078 C-165.89681641 69.07080078 -166.55681641 69.07080078 -167.23681641 69.07080078 C-167.62160156 69.94478516 -167.62160156 69.94478516 -168.01416016 70.83642578 C-169.34701908 73.27219353 -170.84864273 74.85042333 -172.79931641 76.82080078 C-178.54349135 83.13939322 -182.2879978 90.561765 -186.23681641 98.07080078 C-187.03345703 99.55966797 -187.03345703 99.55966797 -187.84619141 101.07861328 C-190.23455639 105.67270357 -192.0318984 110.03205274 -193.23681641 115.07080078 C-193.89681641 115.07080078 -194.55681641 115.07080078 -195.23681641 115.07080078 C-195.50236328 116.23998047 -195.76791016 117.40916016 -196.04150391 118.61376953 C-196.39806491 120.16199495 -196.75484743 121.71016937 -197.11181641 123.25830078 C-197.28583984 124.02722656 -197.45986328 124.79615234 -197.63916016 125.58837891 C-198.36740864 128.73063623 -199.08246006 131.69392343 -200.30712891 134.68408203 C-207.73250712 153.74671264 -200.99158773 177.51130108 -195.87939453 196.37304688 C-195.23681641 199.07080078 -195.23681641 199.07080078 -195.23681641 202.07080078 C-194.57681641 202.07080078 -193.91681641 202.07080078 -193.23681641 202.07080078 C-192.94548828 203.03759766 -192.65416016 204.00439453 -192.35400391 205.00048828 C-191.94061851 206.31580544 -191.52651665 207.63089758 -191.11181641 208.94580078 C-190.92361328 209.57744141 -190.73541016 210.20908203 -190.54150391 210.85986328 C-187.24350924 221.16609661 -181.18037935 228.76339178 -173.48681641 236.19580078 C-172.68622803 236.98059814 -171.88563965 237.76539551 -171.06079102 238.57397461 C-162.43198392 246.95411796 -153.52504858 253.80581669 -143.23681641 260.07080078 C-142.43630859 260.57353516 -141.63580078 261.07626953 -140.81103516 261.59423828 C-133.13385225 266.34378842 -124.81578557 271.21114439 -116.23681641 274.07080078 C-116.23681641 274.73080078 -116.23681641 275.39080078 -116.23681641 276.07080078 C-115.310625 276.21775391 -115.310625 276.21775391 -114.36572266 276.36767578 C-108.96590823 277.32106767 -104.31372649 278.69756682 -99.38134766 281.09033203 C-97.36210247 282.01352063 -95.43011798 282.59371056 -93.29931641 283.19580078 C-83.92185373 286.65653105 -75.93081305 298.1487185 -70.23681641 306.07080078 C-70.23681641 306.73080078 -70.23681641 307.39080078 -70.23681641 308.07080078 C-71.22681641 308.07080078 -72.21681641 308.07080078 -73.23681641 308.07080078 C-73.02025391 308.83005859 -72.80369141 309.58931641 -72.58056641 310.37158203 C-72.30212891 311.36544922 -72.02369141 312.35931641 -71.73681641 313.38330078 C-71.31916016 314.8625 -71.31916016 314.8625 -70.89306641 316.37158203 C-70.23681641 319.07080078 -70.23681641 319.07080078 -70.23681641 322.07080078 C-69.57681641 322.07080078 -68.91681641 322.07080078 -68.23681641 322.07080078 C-64.22667957 335.19922495 -64.93817929 348.49276664 -65.23681641 362.07080078 C-57.4993037 360.03210074 -57.4993037 360.03210074 -50.54931641 356.19580078 C-49.82486328 355.68017578 -49.10041016 355.16455078 -48.35400391 354.63330078 C-47.30599609 353.85986328 -47.30599609 353.85986328 -46.23681641 353.07080078 C-44.88315723 352.11175074 -43.52903541 351.15335317 -42.17431641 350.19580078 C-41.20494141 349.49455078 -40.23556641 348.79330078 -39.23681641 348.07080078 C-35.52600757 352.4952267 -32.39103908 357.24484009 -29.23681641 362.07080078 C-36.83051694 372.37134672 -47.84540857 377.90192524 -60.23681641 380.07080078 C-62.23612266 380.12347437 -64.23801877 380.14014067 -66.23681641 380.07080078 C-66.29216553 380.64113037 -66.34751465 381.21145996 -66.40454102 381.79907227 C-66.65655383 384.36928831 -66.91534368 386.9387771 -67.17431641 389.50830078 C-67.30483398 390.85504883 -67.30483398 390.85504883 -67.43798828 392.22900391 C-67.56850586 393.51000977 -67.56850586 393.51000977 -67.70166016 394.81689453 C-67.81948853 396.00303345 -67.81948853 396.00303345 -67.93969727 397.21313477 C-68.23681641 399.07080078 -68.23681641 399.07080078 -69.23681641 400.07080078 C-69.49907389 401.59744699 -69.70454918 403.13393115 -69.88525391 404.67236328 C-70.00199463 405.63078125 -70.11873535 406.58919922 -70.23901367 407.57666016 C-70.36203857 408.60597656 -70.48506348 409.63529297 -70.61181641 410.69580078 C-72.07008442 422.37639209 -73.93112849 433.74977691 -77.23681641 445.07080078 C-77.78200887 447.04899912 -78.32398124 449.02808948 -78.86181641 451.00830078 C-79.12220703 451.96607422 -79.38259766 452.92384766 -79.65087891 453.91064453 C-79.84423828 454.62349609 -80.03759766 455.33634766 -80.23681641 456.07080078 C-80.89681641 456.07080078 -81.55681641 456.07080078 -82.23681641 456.07080078 C-82.38119141 456.85455078 -82.52556641 457.63830078 -82.67431641 458.44580078 C-83.23681641 461.07080078 -83.23681641 461.07080078 -84.23681641 463.07080078 C-91.16681641 463.07080078 -98.09681641 463.07080078 -105.23681641 463.07080078 C-103.02629009 455.33395868 -103.02629009 455.33395868 -101.36181641 452.38330078 C-96.52914907 443.0718646 -94.49717688 433.18937938 -93.04931641 422.88330078 C-92.7259249 420.66014268 -92.39928951 418.43745314 -92.06884766 416.21533203 C-91.93196533 415.24958252 -91.79508301 414.28383301 -91.65405273 413.28881836 C-91.23681641 411.07080078 -91.23681641 411.07080078 -90.23681641 410.07080078 C-89.49040666 405.74206463 -88.95796193 401.38170182 -88.39746094 397.02539062 C-88.11464254 394.84261272 -87.81872025 392.66187901 -87.52197266 390.48095703 C-87.34017365 389.08913543 -87.15915913 387.6972111 -86.97900391 386.30517578 C-86.72932861 384.40590332 -86.72932861 384.40590332 -86.47460938 382.46826172 C-86.25406265 379.317206 -86.24930076 377.0577879 -87.23681641 374.07080078 C-89.19867057 372.35939609 -91.19984024 370.69206753 -93.23681641 369.07080078 C-94.48681641 366.82080078 -94.48681641 366.82080078 -95.23681641 365.07080078 C-95.89681641 364.74080078 -96.55681641 364.41080078 -97.23681641 364.07080078 C-100.20196143 356.02914978 -100.65183098 348.00116945 -100.52978516 339.52392578 C-100.52554031 338.38671082 -100.52129547 337.24949585 -100.516922 336.07781982 C-100.50030362 332.49189251 -100.46268349 328.90655448 -100.42431641 325.32080078 C-100.4092478 322.87028814 -100.39556323 320.41976657 -100.38330078 317.96923828 C-100.35045555 312.00289581 -100.30042764 306.03689041 -100.23681641 300.07080078 C-101.50912109 299.91683838 -102.78142578 299.76287598 -104.09228516 299.60424805 C-107.98990333 299.13259478 -111.49215724 298.24100677 -115.23681641 297.07080078 C-115.23681641 296.41080078 -115.23681641 295.75080078 -115.23681641 295.07080078 C-115.87619141 294.96767578 -116.51556641 294.86455078 -117.17431641 294.75830078 C-121.30158966 293.83177005 -125.24324589 292.45419449 -129.23681641 291.07080078 C-129.23681641 290.41080078 -129.23681641 289.75080078 -129.23681641 289.07080078 C-130.15914062 288.76335937 -130.15914062 288.76335937 -131.10009766 288.44970703 C-134.47900391 287.32340495 -137.85791016 286.19710286 -141.23681641 285.07080078 C-141.23681641 284.41080078 -141.23681641 283.75080078 -141.23681641 283.07080078 C-142.14431641 282.78205078 -143.05181641 282.49330078 -143.98681641 282.19580078 C-146.55884548 281.30548302 -148.85028407 280.35585666 -151.23681641 279.07080078 C-151.23681641 278.41080078 -151.23681641 277.75080078 -151.23681641 277.07080078 C-152.62900391 276.63767578 -152.62900391 276.63767578 -154.04931641 276.19580078 C-157.23681641 275.07080078 -157.23681641 275.07080078 -160.23681641 273.07080078 C-160.23681641 272.41080078 -160.23681641 271.75080078 -160.23681641 271.07080078 C-160.97931641 270.78205078 -161.72181641 270.49330078 -162.48681641 270.19580078 C-163.39431641 269.82455078 -164.30181641 269.45330078 -165.23681641 269.07080078 C-166.22681641 268.66861328 -166.22681641 268.66861328 -167.23681641 268.25830078 C-170.02381038 266.60352311 -171.97023535 264.38889504 -174.23681641 262.07080078 C-175.58207828 260.87322235 -176.9368358 259.68625248 -178.29931641 258.50830078 C-181.05790096 256.11958231 -183.65655032 253.65106687 -186.23681641 251.07080078 C-188.29304029 249.3201202 -190.35429057 247.57704865 -192.43212891 245.85205078 C-194.29371132 244.01464477 -195.14435702 242.42007186 -196.23681641 240.07080078 C-197.22681641 239.14267578 -197.22681641 239.14267578 -198.23681641 238.19580078 C-200.62671726 235.65653113 -201.32839376 233.40168382 -202.23681641 230.07080078 C-202.89681641 230.07080078 -203.55681641 230.07080078 -204.23681641 230.07080078 C-204.90986658 228.46930192 -205.57503867 226.86449049 -206.23681641 225.25830078 C-206.60806641 224.36498047 -206.97931641 223.47166016 -207.36181641 222.55126953 C-208.23681641 220.07080078 -208.23681641 220.07080078 -208.23681641 217.07080078 C-208.89681641 217.07080078 -209.55681641 217.07080078 -210.23681641 217.07080078 C-210.91002925 214.82275076 -211.57515764 212.57227854 -212.23681641 210.32080078 C-212.60806641 209.06783203 -212.97931641 207.81486328 -213.36181641 206.52392578 C-214.23681641 203.07080078 -214.23681641 203.07080078 -214.23681641 199.07080078 C-214.89681641 199.07080078 -215.55681641 199.07080078 -216.23681641 199.07080078 C-216.38304443 198.31871338 -216.52927246 197.56662598 -216.67993164 196.79174805 C-217.34075296 193.40480942 -218.0074533 190.01905477 -218.67431641 186.63330078 C-218.90441406 185.44929687 -219.13451172 184.26529297 -219.37158203 183.04541016 C-219.59394531 181.92070312 -219.81630859 180.79599609 -220.04541016 179.63720703 C-220.249646 178.59508057 -220.45388184 177.5529541 -220.66430664 176.47924805 C-220.99957882 174.13323549 -220.99957882 174.13323549 -222.23681641 173.07080078 C-222.55394772 168.05925116 -222.53125712 163.02912734 -222.54931641 158.00830078 C-222.55259949 157.27594208 -222.55588257 156.54358337 -222.55926514 155.78903198 C-222.57506789 144.96101193 -221.71457964 135.38462533 -218.23681641 125.07080078 C-217.79511856 123.24333663 -217.37441687 121.41049861 -216.98681641 119.57080078 C-216.73931641 118.41580078 -216.49181641 117.26080078 -216.23681641 116.07080078 C-215.57681641 116.07080078 -214.91681641 116.07080078 -214.23681641 116.07080078 C-214.11564453 115.49072266 -213.99447266 114.91064453 -213.86962891 114.31298828 C-212.89946166 109.79051636 -211.80283858 105.43329112 -210.23681641 101.07080078 C-209.57681641 101.07080078 -208.91681641 101.07080078 -208.23681641 101.07080078 C-208.15431641 100.41466797 -208.07181641 99.75853516 -207.98681641 99.08251953 C-206.97682567 95.02677548 -205.15128872 91.58171321 -203.23681641 87.88330078 C-202.86814453 87.15949219 -202.49947266 86.43568359 -202.11962891 85.68994141 C-201.16354523 83.81441229 -200.20064031 81.94236402 -199.23681641 80.07080078 C-198.90681641 79.41080078 -198.57681641 78.75080078 -198.23681641 78.07080078 C-197.57681641 78.07080078 -196.91681641 78.07080078 -196.23681641 78.07080078 C-196.13240234 77.49330078 -196.02798828 76.91580078 -195.92041016 76.32080078 C-195.1309213 73.72225461 -193.98934019 72.18642958 -192.29931641 70.07080078 C-190.69725235 68.05542782 -189.33428372 66.27711292 -188.23291016 63.94580078 C-187.23681641 62.07080078 -187.23681641 62.07080078 -184.23681641 60.07080078 C-183.64900391 58.98798828 -183.64900391 58.98798828 -183.04931641 57.88330078 C-180.43949309 53.83357495 -176.92137432 51.12714863 -173.23681641 48.07080078 C-171.78275391 46.80236328 -171.78275391 46.80236328 -170.29931641 45.50830078 C-164.29202683 40.72698867 -158.82957333 36.68628098 -151.23681641 35.07080078 C-151.23681641 34.41080078 -151.23681641 33.75080078 -151.23681641 33.07080078 C-150.24681641 32.74466797 -149.25681641 32.41853516 -148.23681641 32.08251953 C-146.90345572 31.64119592 -145.57012394 31.19978496 -144.23681641 30.75830078 C-143.58841797 30.54496094 -142.94001953 30.33162109 -142.27197266 30.11181641 C-138.2320112 28.77182919 -134.23913445 27.34050063 -130.25927734 25.83178711 C-121.41714346 22.50477947 -112.49648445 19.32926582 -103.41650391 16.71533203 C-101.20657322 16.0618579 -99.03882165 15.32616737 -96.86181641 14.57080078 C-92.34953282 13.03999054 -87.76565668 11.91498382 -83.13134766 10.81689453 C-80.25756262 10.12880763 -80.25756262 10.12880763 -77.64306641 9.10986328 C-72.49698758 7.54007318 -67.23356479 6.83404432 -61.92431641 6.00830078 C-59.74014795 5.66690548 -57.55651694 5.32204731 -55.37353516 4.97314453 C-53.93046997 4.74872681 -53.93046997 4.74872681 -52.45825195 4.51977539 C-50.27287777 4.29119932 -50.27287777 4.29119932 -49.23681641 3.07080078 C-47.81518107 2.85396987 -46.38399702 2.699151 -44.95166016 2.57080078 C-43.58485107 2.44777588 -43.58485107 2.44777588 -42.19042969 2.32226562 C-41.1951123 2.23928223 -40.19979492 2.15629883 -39.17431641 2.07080078 C-38.14806152 1.9839502 -37.12180664 1.89709961 -36.06445312 1.80761719 C-24.05285405 0.83508456 -12.04170865 0.38114991 0 0 Z " fill="#030202" transform="translate(238.23681640625,36.92919921875)"/>
<path d="M0 0 C8.37631588 8.37631588 5.47853627 35.39935089 5.50482178 47.30984497 C5.43120804 64.71169329 2.18468239 80.74195273 -4 97 C-4.99 99.64 -5.98 102.28 -7 105 C-10.3 111.27 -13.6 117.54 -17 124 C-83.66 124 -150.32 124 -219 124 C-218.34 121.69 -217.68 119.38 -217 117 C-216.34 117 -215.68 117 -215 117 C-214.88390381 116.32485352 -214.76780762 115.64970703 -214.64819336 114.95410156 C-213.66556967 109.37864348 -212.53422811 103.87796241 -211.19848633 98.37719727 C-208.81412382 88.52762916 -207.11921659 78.74817452 -205.98852539 68.67675781 C-205.40562484 63.57853937 -204.48827531 58.92954431 -203 54 C-202.58631797 51.69410572 -202.20965516 49.38118221 -201.875 47.0625 C-201.70742187 45.91910156 -201.53984375 44.77570313 -201.3671875 43.59765625 C-201.24601562 42.74042969 -201.12484375 41.88320313 -201 41 C-200.32195312 40.90203125 -199.64390625 40.8040625 -198.9453125 40.703125 C-187.44328671 38.8551541 -179.18924736 34.78718551 -169.8828125 28.0234375 C-167.61389308 26.43088972 -165.51662488 25.13065756 -163 24 C-161.99466333 25.62170379 -160.99588093 27.24747237 -160 28.875 C-159.443125 29.77992188 -158.88625 30.68484375 -158.3125 31.6171875 C-157 34 -157 34 -157 36 C-156.34 36 -155.68 36 -155 36 C-154.401875 36.928125 -153.80375 37.85625 -153.1875 38.8125 C-150.88578712 42.16642448 -149.7779295 43.57278219 -146 45 C-138.40048501 45.63329292 -133.06851244 42.11674763 -127 38 C-125.05042073 36.68201825 -123.09982663 35.36561618 -121.14697266 34.05249023 C-119.81868184 33.15578968 -118.49524439 32.25184931 -117.17724609 31.34008789 C-114.13402738 29.26552977 -111.6033556 27.74452335 -108 27 C-107.62488281 27.59167969 -107.24976563 28.18335938 -106.86328125 28.79296875 C-102.00537148 36.29397301 -96.81076468 43.06307844 -88 46 C-75.88209049 46.73081362 -66.05204294 44.74840767 -55 40 C-53.64648438 39.46052734 -53.64648438 39.46052734 -52.265625 38.91015625 C-39.24647818 33.68490408 -27.01404264 27.78171574 -16 19 C-15.13761719 18.34128906 -14.27523437 17.68257813 -13.38671875 17.00390625 C-11.20338811 15.17076613 -9.65162332 13.49132685 -8 11.1875 C-7.50242187 10.50042969 -7.00484375 9.81335938 -6.4921875 9.10546875 C-5.99976563 8.41066406 -5.50734375 7.71585937 -5 7 C-4.50757813 6.31550781 -4.01515625 5.63101562 -3.5078125 4.92578125 C-2.33211974 3.28844642 -1.16511993 1.64487519 0 0 Z " fill="#FDFDFD" transform="translate(373,376)"/>
<path d="M0 0 C-1.50014962 2.86549002 -3.02880503 5.7148435 -4.5625 8.5625 C-5.18995117 9.76229492 -5.18995117 9.76229492 -5.83007812 10.98632812 C-10.06035237 18.77893857 -15.43969294 24.14611927 -22.625 29.3125 C-23.52476562 29.96863281 -24.42453125 30.62476563 -25.3515625 31.30078125 C-27.88485086 32.92612113 -30.19189896 33.94590802 -33 35 C-34.70684385 35.79907666 -36.41334416 36.59897541 -38.11376953 37.41162109 C-64.58258657 50.05334189 -64.58258657 50.05334189 -75 48 C-77.39313065 46.2037703 -78.38313232 44.6078511 -80 42 C-80 41.34 -80 40.68 -80 40 C-80.66 40 -81.32 40 -82 40 C-82.33 38.35 -82.66 36.7 -83 35 C-82.42894531 34.6596875 -81.85789062 34.319375 -81.26953125 33.96875 C-78.50924629 32.31872275 -75.75445738 30.65973714 -73 29 C-71.95328125 28.37351562 -70.9065625 27.74703125 -69.828125 27.1015625 C-57.78325073 19.93977453 -57.78325073 19.93977453 -47.01953125 11.046875 C-40.02952427 4.40567076 -31.46909696 4.39679044 -22.3125 3.31933594 C-18.47512202 2.78942774 -14.83633028 1.73574099 -11.1328125 0.6328125 C-7.03323222 -0.58354648 -4.08236552 -1.36078851 0 0 Z " fill="#FAF8F8" transform="translate(363,357)"/>
<path d="M0 0 C2.80016643 0.5306767 4.73823228 1.58028248 6.9375 3.3671875 C6.9375 4.0271875 6.9375 4.6871875 6.9375 5.3671875 C8.0203125 5.769375 8.0203125 5.769375 9.125 6.1796875 C11.9375 7.3671875 11.9375 7.3671875 14.25 8.91015625 C18.94255812 11.45423209 23.7479662 11.09412609 28.9375 10.3671875 C33.06651944 8.68622967 36.04715757 6.36545022 39 3.0546875 C40.9375 1.3671875 40.9375 1.3671875 44.375 0.8046875 C47.9375 1.3671875 47.9375 1.3671875 50.875 3.3671875 C53.034187 6.50782314 53.68399082 8.55784647 53.41796875 12.3828125 C52.13416264 17.68503612 47.29675947 21.30624998 42.98046875 24.26953125 C39.7980748 25.97938345 36.46078425 26.88379643 32.9765625 27.7890625 C30.96051375 28.18170295 30.96051375 28.18170295 29.9375 29.3671875 C27.40700598 29.44032317 24.90445163 29.45966277 22.375 29.4296875 C21.30862305 29.42291992 21.30862305 29.42291992 20.22070312 29.41601562 C18.45959987 29.40419614 16.69853964 29.38626013 14.9375 29.3671875 C14.9375 28.7071875 14.9375 28.0471875 14.9375 27.3671875 C13.95910156 27.22023437 13.95910156 27.22023437 12.9609375 27.0703125 C3.08183826 25.38008313 -2.98259293 20.25332869 -10.0625 13.3671875 C-11.50680855 10.47857041 -11.43938506 8.57071049 -11.0625 5.3671875 C-7.90672065 0.83075468 -5.3127226 -0.34210714 0 0 Z " fill="#060606" transform="translate(226.0625,123.6328125)"/>
<path d="M0 0 C2.375 1.4375 2.375 1.4375 4 4 C4.608193 6.99457741 4.86965117 9.94983735 5 13 C5.62648437 12.43410156 6.25296875 11.86820313 6.8984375 11.28515625 C7.71570313 10.55167969 8.53296875 9.81820312 9.375 9.0625 C10.18710938 8.33160156 10.99921875 7.60070312 11.8359375 6.84765625 C15.15626939 4.01278805 17.55453039 3.5879841 21.95703125 3.66015625 C24 4 24 4 27 6.0625 C29.46241608 9.67917361 29.48602588 11.70677141 29 16 C28.67 16.66 28.34 17.32 28 18 C27.34 18 26.68 18 26 18 C26 18.66 26 19.32 26 20 C24.23947136 21.58070528 22.41580202 23.09166286 20.5625 24.5625 C19.55316406 25.36816406 18.54382813 26.17382812 17.50390625 27.00390625 C16.67761719 27.66261719 15.85132813 28.32132813 15 29 C14.505 29.495 14.505 29.495 14 30 C9.70745983 30.4952931 7.68632408 30.49236293 4.125 27.9375 C1.65935436 24.52910749 1.24445705 22.15576993 1 18 C-2.61759584 18 -3.95698951 18.98217502 -7 20.875 C-8.299375 21.67550781 -8.299375 21.67550781 -9.625 22.4921875 C-11.43119722 23.63888508 -13.21986661 24.81324441 -15 26 C-19.32351988 26.56045628 -21.29704773 26.4786058 -24.9375 24 C-27.04777422 20.93051022 -27.93630152 18.8137797 -27.66015625 15.046875 C-25.62429566 8.73450251 -18.3928588 5.49261095 -12.9375 2.5625 C-8.30335103 0.38275528 -5.06442143 -1.0550878 0 0 Z " fill="#FFB5B5" transform="translate(88,122)"/>
<path d="M0 0 C2.2109375 -0.34765625 2.2109375 -0.34765625 5 0 C7.2890625 2.31640625 7.2890625 2.31640625 9.625 5.5625 C10.04885986 6.14169189 10.47271973 6.72088379 10.90942383 7.31762695 C11.81601909 8.55937268 12.71563773 9.80623648 13.60888672 11.05761719 C15.00268898 13.00375457 16.42062958 14.92968373 17.84765625 16.8515625 C20.16841613 19.9795432 22.46178721 23.126232 24.74560547 26.28125 C25.9096669 27.87622713 27.09650687 29.45451168 28.28515625 31.03125 C28.93355469 31.9078125 29.58195312 32.784375 30.25 33.6875 C30.81203125 34.43386719 31.3740625 35.18023437 31.953125 35.94921875 C33 38 33 38 32.91796875 40.0546875 C29.7557524 46.75589492 19.69576881 51.59440094 13 54 C11.33366694 54.0333451 9.66624421 54.03752335 8 54 C7.98018066 53.28569824 7.96036133 52.57139648 7.93994141 51.83544922 C7.45763342 32.82758025 7.45763342 32.82758025 5 14 C4.34 14 3.68 14 3 14 C2.49528803 12.23050388 1.99639315 10.45934777 1.5 8.6875 C1.2215625 7.70136719 0.943125 6.71523438 0.65625 5.69921875 C0 3 0 3 0 0 Z " fill="#FAF6F6" transform="translate(165,345)"/>
<path d="M0 0 C2.4375 1.625 2.4375 1.625 4 4 C4.9398175 11.38428032 1.87046062 14.89488206 -2.375 20.5 C-5.06473833 23.91915889 -7.83458717 27.02078793 -11 30 C-11.33 30.33 -11.66 30.66 -12 31 C-13.9609375 31.203125 -13.9609375 31.203125 -16.375 31.25 C-17.16648437 31.27578125 -17.95796875 31.3015625 -18.7734375 31.328125 C-21.50830433 30.92509199 -22.30948992 30.13647286 -24 28 C-25.6323407 24.7353186 -25.63779566 21.51898205 -25 18 C-23.44754859 15.22837574 -21.43215126 13.0437962 -19.25 10.75 C-18.71117187 10.151875 -18.17234375 9.55375 -17.6171875 8.9375 C-7.90332966 -1.77143596 -7.90332966 -1.77143596 0 0 Z " fill="#FFB4B4" transform="translate(444,141)"/>
<path d="M0 0 C1.9765625 0.4375 1.9765625 0.4375 5.0390625 2.375 C7.38240685 6.07899591 7.43067009 7.88091728 6.6875 12.1015625 C5.48260959 16.06048814 3.42465905 19.13879364 0.9765625 22.4375 C0.58210938 23.04207031 0.18765625 23.64664063 -0.21875 24.26953125 C-2.45079776 27.42543984 -3.68078556 28.37631215 -7.5234375 29.0625 C-11.71861107 28.31336186 -13.3733108 27.81038852 -16.0234375 24.4375 C-17.42293445 18.62746722 -16.23070684 14.14930426 -13.2734375 9.0625 C-9.72148824 3.55518473 -7.08761811 -0.42472618 0 0 Z " fill="#FFB4B4" transform="translate(416.0234375,137.5625)"/>
<path d="M0 0 C2.91368224 1.98378365 4.63558769 3.41448681 5.4453125 6.9375 C5.65231499 10.58074386 5.16906633 12.6821553 3.4375 15.9375 C0.21052015 18.66802141 -1.79165269 19.07383065 -6 19 C-8.80189446 17.23358828 -10.51524911 15.96950178 -12 13 C-12.41334152 9.94127273 -12.47189841 7.05377934 -12 4 C-8.57473068 -0.25563764 -5.29763755 -0.85140604 0 0 Z " fill="#090909" transform="translate(384,114)"/>
<path d="M0 0 C2.4375 1 2.4375 1 4 3 C5.08745801 7.49482645 5.57436819 9.71450929 3.6875 13.9375 C1.19852583 16.97957954 0.21025319 16.97587259 -3.8125 17.4375 C-7.5555686 17.38977417 -7.95107056 17.04281326 -11 14.375 C-13.18131104 10.69403762 -13.88713951 9.16955568 -13 5 C-9.20570207 -0.45430328 -6.21203752 -0.78883016 0 0 Z " fill="#0A0A0A" transform="translate(133,101)"/>
<path d="M0 0 C0.66 0.33 1.32 0.66 2 1 C1.360625 1.66 0.72125 2.32 0.0625 3 C-2.58912502 6.85690912 -2.68667121 9.37840033 -3 14 C-3.33 14 -3.66 14 -4 14 C-5.44561911 5.8487983 -5.44561911 5.8487983 -3.6875 2.5 C-2 1 -2 1 0 0 Z " fill="#FFEAEA" transform="translate(422,153)"/>
<path d="M0 0 C0.66 0.99 1.32 1.98 2 3 C1.67 3.33 1.34 3.66 1 4 C0.76807135 5.51469448 0.58784762 7.03754562 0.4375 8.5625 C0.35371094 9.38878906 0.26992187 10.21507812 0.18359375 11.06640625 C0.12300781 11.70449219 0.06242187 12.34257812 0 13 C-2 11 -2 11 -2.01171875 8.90625 C-1.90472656 8.1121875 -1.79773438 7.318125 -1.6875 6.5 C-1.58824219 5.7059375 -1.48898438 4.911875 -1.38671875 4.09375 C-1 2 -1 2 0 0 Z " fill="#FFCDCD" transform="translate(91,134)"/>
<path d="M0 0 C0.66 0.33 1.32 0.66 2 1 C1.21625 1.9075 0.4325 2.815 -0.375 3.75 C-2.30052496 6.05190236 -3.82205741 8.21577207 -5 11 C-5.3125 8.3125 -5.3125 8.3125 -5 5 C-2.5 2.125 -2.5 2.125 0 0 Z " fill="#3F3F3F" transform="translate(220,124)"/>
</svg>
